<svg id="visual" viewBox="0 0 900 600" width="900" height="600" xmlns="http://www.w3.org/2000/svg" xmlns:xlink="http://www.w3.org/1999/xlink" version="1.1"><path d="M0 88L21.5 90.8C43 93.7 86 99.3 128.8 120C171.7 140.7 214.3 176.3 257.2 181.8C300 187.3 343 162.7 385.8 151.7C428.7 140.7 471.3 143.3 514.2 132.8C557 122.3 600 98.7 642.8 100C685.7 101.3 728.3 127.7 771.2 143.3C814 159 857 164 878.5 166.5L900 169L900 0L878.5 0C857 0 814 0 771.2 0C728.3 0 685.7 0 642.8 0C600 0 557 0 514.2 0C471.3 0 428.7 0 385.8 0C343 0 300 0 257.2 0C214.3 0 171.7 0 128.8 0C86 0 43 0 21.5 0L0 0Z" fill="#009581" stroke-linecap="round" stroke-linejoin="miter"></path></svg>