<svg id="visual" viewBox="0 0 960 540" width="960" height="550" xmlns="http://www.w3.org/2000/svg" xmlns:xlink="http://www.w3.org/1999/xlink" version="1.1"><path d="M0 56L17.8 54.8C35.7 53.7 71.3 51.3 106.8 49.3C142.3 47.3 177.7 45.7 213.2 45.5C248.7 45.3 284.3 46.7 320 50.8C355.7 55 391.3 62 426.8 60.3C462.3 58.7 497.7 48.3 533.2 48.2C568.7 48 604.3 58 640 62.5C675.7 67 711.3 66 746.8 65C782.3 64 817.7 63 853.2 59.2C888.7 55.3 924.3 48.7 942.2 45.3L960 42L960 0L942.2 0C924.3 0 888.7 0 853.2 0C817.7 0 782.3 0 746.8 0C711.3 0 675.7 0 640 0C604.3 0 568.7 0 533.2 0C497.7 0 462.3 0 426.8 0C391.3 0 355.7 0 320 0C284.3 0 248.7 0 213.2 0C177.7 0 142.3 0 106.8 0C71.3 0 35.7 0 17.8 0L0 0Z" fill="#015A4F" stroke-linecap="round" stroke-linejoin="miter"></path></svg>