<svg xmlns="http://www.w3.org/2000/svg" xmlns:xlink="http://www.w3.org/1999/xlink" width="1440" zoomAndPan="magnify" viewBox="0 0 1080 767.999994" height="1024" preserveAspectRatio="xMidYMid meet" version="1.0"><defs><clipPath id="0abd9acbe9"><path d="M 1 516.898438 L 1079 516.898438 L 1079 768 L 1 768 Z M 1 516.898438 " clip-rule="nonzero"/></clipPath></defs><g clip-path="url(#0abd9acbe9)"><path fill="#009581" d="M 1041.394531 529.457031 C 962.769531 555.71875 906.828125 571.777344 845.023438 585.707031 C 773.628906 601.84375 722.863281 608.464844 663.113281 609.453125 C 598.570312 610.441406 547.953125 605.191406 469.40625 589.132812 C 437.742188 582.660156 400.980469 574.367188 322.8125 556.023438 C 245.25 537.832031 197.300781 528.164062 167.617188 524.890625 C 114.871094 518.957031 61.285156 523.675781 11.050781 538.667969 L 1.6875 541.410156 L 1.535156 654.664062 L 1.308594 767.996094 L 1078.691406 767.996094 L 1078.691406 642.410156 C 1078.691406 573.300781 1078.617188 516.898438 1078.539062 516.976562 C 1078.386719 517.050781 1061.71875 522.683594 1041.394531 529.457031 Z M 1041.394531 529.457031 " fill-opacity="1" fill-rule="nonzero"/></g></svg>