<svg xmlns="http://www.w3.org/2000/svg" xmlns:xlink="http://www.w3.org/1999/xlink" width="3200" zoomAndPan="magnify" viewBox="0 0 2400 1535.999932" height="2048" preserveAspectRatio="xMidYMid meet" version="1.0"><defs><clipPath id="6f1ee88b67"><path d="M 2 0 L 2398 0 L 2398 541.546875 L 2 541.546875 Z M 2 0 " clip-rule="nonzero"/></clipPath></defs><g clip-path="url(#6f1ee88b67)"><path fill="#009581" d="M 85.777344 513.640625 C 260.5 455.285156 384.820312 419.597656 522.164062 388.644531 C 680.816406 352.785156 793.636719 338.070312 926.414062 335.871094 C 1069.84375 333.671875 1182.324219 345.34375 1356.878906 381.03125 C 1427.242188 395.410156 1508.9375 413.847656 1682.648438 454.609375 C 1855.003906 495.035156 1961.5625 516.515625 2027.527344 523.789062 C 2144.742188 536.980469 2263.820312 526.496094 2375.453125 493.175781 L 2396.257812 487.085938 L 2396.597656 235.402344 L 2397.101562 -16.449219 L 2.894531 -16.449219 L 2.894531 262.632812 C 2.894531 416.214844 3.066406 541.546875 3.234375 541.378906 C 3.574219 541.210938 40.613281 528.695312 85.777344 513.640625 Z M 85.777344 513.640625 " fill-opacity="1" fill-rule="nonzero"/></g></svg>