<svg xmlns="http://www.w3.org/2000/svg" xmlns:xlink="http://www.w3.org/1999/xlink" width="2880" zoomAndPan="magnify" viewBox="0 0 2160 1535.999932" height="2048" preserveAspectRatio="xMidYMid meet" version="1.0"><defs><clipPath id="3eff494669"><path d="M 2 0 L 2158 0 L 2158 502.195312 L 2 502.195312 Z M 2 0 " clip-rule="nonzero"/></clipPath></defs><g clip-path="url(#3eff494669)"><path fill="#009581" d="M 77.207031 477.078125 C 234.457031 424.558594 346.34375 392.441406 469.953125 364.582031 C 612.742188 332.308594 714.277344 319.066406 833.773438 317.085938 C 962.863281 315.109375 1064.09375 325.613281 1221.191406 357.730469 C 1284.515625 370.671875 1358.042969 387.265625 1514.378906 423.949219 C 1669.496094 460.332031 1765.398438 479.664062 1824.769531 486.210938 C 1930.261719 498.085938 2037.429688 488.648438 2137.898438 458.660156 L 2156.621094 453.179688 L 2156.925781 226.664062 L 2157.382812 0 L 2.617188 0 L 2.617188 251.171875 C 2.617188 389.394531 2.769531 502.195312 2.921875 502.042969 C 3.226562 501.890625 36.5625 490.625 77.207031 477.078125 Z M 77.207031 477.078125 " fill-opacity="1" fill-rule="nonzero"/></g></svg>